<svg xmlns="http://www.w3.org/2000/svg" width="512" height="512" viewBox="0 0 512 512"><text font-family="OpenSans-Bold,Open Sans" font-size="48" font-weight="700" transform="translate(159.285 -34.521)">RESUME</text><text fill="#231f20" font-family="OpenSans-Bold,Open Sans" font-size="48" font-weight="700" transform="translate(159.285 -34.521)">RESUME</text><text fill="#231f20" font-family="OpenSans-Bold,Open Sans" font-size="48" font-weight="700" transform="translate(159.285 -34.521)">RESUME</text><rect width="96" height="104" x="120" y="64"/><path d="M416,136.415V48H400v88h2.377C404.281,136,414.159,136.141,416,136.415Z"/><circle cx="240" cy="408" r="24"/><rect width="88" height="24" x="264" y="64"/><circle cx="144" cy="408" r="24"/><path d="M299,257.753l8.766-7.012a48,48,0,0,1,67.467,7.5l4.61,5.763H384V32H88V464H368V362.667L297.6,268.8A8,8,0,0,1,299,257.753ZM328,224H200V208H328ZM248,56a8,8,0,0,1,8-8H360a8,8,0,0,1,8,8V96a8,8,0,0,1-8,8H256a8,8,0,0,1-8-8Zm0,72H368v16H248Zm0,40H368v16H248ZM104,56a8,8,0,0,1,8-8H224a8,8,0,0,1,8,8V176a8,8,0,0,1-8,8H112a8,8,0,0,1-8-8Zm0,152h80v16H104Zm0,40H280v16H104Zm192,40v16H200V288Zm-192,0h80v16H104Zm40,160a40,40,0,1,1,40-40A40.045,40.045,0,0,1,144,448Zm96,0a40,40,0,1,1,40-40A40.045,40.045,0,0,1,240,448Zm40-104H104V328H280Zm32,88H296V416h16Zm48,0H328V416h32Zm0-32H296V384h64Zm-40-56H296V328h24Z"/><path d="M423.249,167.043A21.973,21.973,0,0,0,402.377,152H400V272a8,8,0,0,1-8,8H376a8,8,0,0,1-6.247-3l-7.012-8.766a32,32,0,0,0-44.978-5l-2.711,2.168L382.4,355.2A8,8,0,0,1,384,360V480h56V368a8,8,0,0,1,.509-2.809L464,302.549V289.3Z"/></svg>